<?xml version="1.0" encoding="UTF-8" standalone="no"?>
<!-- Created with Inkscape (http://www.inkscape.org/) -->

<svg
   xmlns:dc="http://purl.org/dc/elements/1.1/"
   xmlns:cc="http://creativecommons.org/ns#"
   xmlns:rdf="http://www.w3.org/1999/02/22-rdf-syntax-ns#"
   xmlns:svg="http://www.w3.org/2000/svg"
   xmlns="http://www.w3.org/2000/svg"
   xmlns:sodipodi="http://sodipodi.sourceforge.net/DTD/sodipodi-0.dtd"
   xmlns:inkscape="http://www.inkscape.org/namespaces/inkscape"
   width="210mm"
   height="297mm"
   viewBox="0 0 210 297"
   version="1.1"
   id="svg5899"
   inkscape:version="0.92.4 (ca053d0, 2019-01-16)"
   sodipodi:docname="logo.svg">
  <defs
     id="defs5893" />
  <sodipodi:namedview
     id="base"
     pagecolor="#ffffff"
     bordercolor="#666666"
     borderopacity="1.0"
     inkscape:pageopacity="0.0"
     inkscape:pageshadow="2"
     inkscape:zoom="0.35"
     inkscape:cx="345.35543"
     inkscape:cy="560"
     inkscape:document-units="mm"
     inkscape:current-layer="layer1"
     showgrid="false"
     inkscape:window-width="927"
     inkscape:window-height="1025"
     inkscape:window-x="993"
     inkscape:window-y="27"
     inkscape:window-maximized="0" />
  <metadata
     id="metadata5896">
    <rdf:RDF>
      <cc:Work
         rdf:about="">
        <dc:format>image/svg+xml</dc:format>
        <dc:type
           rdf:resource="http://purl.org/dc/dcmitype/StillImage" />
        <dc:title></dc:title>
      </cc:Work>
    </rdf:RDF>
  </metadata>
  <g
     inkscape:label="Layer 1"
     inkscape:groupmode="layer"
     id="layer1">
    <g
       data-name="Layer 2"
       id="Layer_2-5"
       transform="matrix(0.26458333,0,0,0.26458333,-158.59881,78.870698)"
       inkscape:export-xdpi="96"
       inkscape:export-ydpi="96">
      <g
         data-name="Layer 1-2"
         id="Layer_1-2-5">
        <line
           id="line4830"
           y2="246.82001"
           x2="901.29999"
           y1="233.13"
           x1="930.62"
           class="cls-16"
           style="fill:#ffffff;stroke:#ffffff;stroke-miterlimit:10" />
        <line
           id="line4832"
           y2="256.17001"
           x2="935.08002"
           y1="267.35001"
           x1="902.46997"
           class="cls-16"
           style="fill:#ffffff;stroke:#ffffff;stroke-miterlimit:10" />
        <line
           id="line4834"
           y2="245.89"
           x2="877.81"
           y1="307.20001"
           x1="886.72998"
           class="cls-16"
           style="fill:#ffffff;stroke:#ffffff;stroke-miterlimit:10" />
        <line
           id="line4836"
           y2="256.17001"
           x2="935.08002"
           y1="232.42"
           x1="929.90997"
           class="cls-16"
           style="fill:#ffffff;stroke:#ffffff;stroke-miterlimit:10" />
        <line
           id="line4838"
           y2="267.35001"
           x2="902.46997"
           y1="307.20001"
           x1="886.72998"
           class="cls-16"
           style="fill:#ffffff;stroke:#ffffff;stroke-miterlimit:10" />
        <line
           id="line4840"
           y2="307.20001"
           x2="886.72998"
           y1="246.11"
           x1="900.57001"
           class="cls-16"
           style="fill:#ffffff;stroke:#ffffff;stroke-miterlimit:10" />
        <line
           id="line4842"
           y2="308.64001"
           x2="886.72998"
           y1="256.17001"
           x1="935.08002"
           class="cls-16"
           style="fill:#ffffff;stroke:#ffffff;stroke-miterlimit:10" />
        <line
           id="line4844"
           y2="267.06"
           x2="902.95001"
           y1="245.89"
           x1="877.81"
           class="cls-16"
           style="fill:#ffffff;stroke:#ffffff;stroke-miterlimit:10" />
        <line
           id="line4846"
           y2="232.82001"
           x2="930.59998"
           y1="307.88"
           x1="887.15002"
           class="cls-16"
           style="fill:#ffffff;stroke:#ffffff;stroke-miterlimit:10" />
        <line
           id="line4848"
           y2="245.99001"
           x2="901.64001"
           y1="256.51999"
           x1="934.54999"
           class="cls-16"
           style="fill:#ffffff;stroke:#ffffff;stroke-miterlimit:10" />
        <line
           id="line4850"
           y2="245.99001"
           x2="901.64001"
           y1="245.99001"
           x1="877.94"
           class="cls-16"
           style="fill:#ffffff;stroke:#ffffff;stroke-miterlimit:10" />
        <line
           id="line4852"
           y2="232.82001"
           x2="930.59998"
           y1="267.06"
           x1="902.95001"
           class="cls-16"
           style="fill:#ffffff;stroke:#ffffff;stroke-miterlimit:10" />
        <polygon
           id="polygon4854"
           points="991.58,284.53 991.92,284.53 991.92,284.19 991.92,280.19 991.92,279.84 991.59,279.84 963.75,279.82 963.81,229.45 963.81,229.13 963.47,229.13 959.47,229.13 959.14,229.13 959.14,229.45 959.07,284.15 959.07,284.49 959.4,284.49 "
           class="cls-7"
           style="fill:#ffffff" />
        <path
           id="path4856"
           d="m 1067,229.24 h -19 v 55.37 h 4.68 v -25.72 h 14.42 c 4,-0.09 16,-0.38 16,-14.79 -0.1,-14.84 -11.72,-14.86 -16.1,-14.86 z m 11.4,14.83 c 0,8.68 -5.49,10 -11.41,10.14 h -14.3 V 233.9 H 1067 c 6.21,0.02 11.4,0.79 11.4,10.17 z"
           class="cls-7"
           inkscape:connector-curvature="0"
           style="fill:#ffffff" />
        <path
           id="path4858"
           d="m 1109.69,229.28 h -19 v 0.33 l -0.07,54.7 v 0.34 h 4.68 V 259 h 14.48 c 4,-0.09 16,-0.37 16,-14.8 -0.07,-14.89 -11.72,-14.9 -16.09,-14.92 z m 11.31,14.84 c 0,8.67 -5.5,10 -11.43,10.13 h -14.28 v -20.32 h 14.31 c 6.29,0.07 11.4,0.8 11.4,10.19 z"
           class="cls-7"
           inkscape:connector-curvature="0"
           style="fill:#ffffff" />
        <polygon
           id="polygon4860"
           points="1141.21,284.69 1141.55,284.69 1141.55,284.36 1141.6,229.66 1141.6,229.32 1141.27,229.32 1133.28,229.31 1132.94,229.31 1132.94,229.65 1132.94,233.65 1132.94,233.98 1133.28,233.98 1136.93,234 1136.88,284.35 1136.88,284.69 1137.21,284.69 "
           class="cls-7"
           style="fill:#ffffff" />
        <path
           id="path4862"
           d="m 1177.33,258.2 a 21.65,21.65 0 0 0 -8.38,-3 l -2,-0.32 a 38.64,38.64 0 0 1 -5.55,-1.1 c -5.72,-1.81 -6.92,-6.58 -6.92,-10.18 0,-7.82 4.37,-9.52 10.91,-9.66 h 11.06 v -0.39 l 0.07,-3.82 v -0.33 h -0.33 c 0,0 -2.88,0 -6,-0.07 h -4.93 c -3.78,0.08 -15.29,0.36 -15.3,14.17 0,7.27 3.56,12.4 10.06,14.48 a 40.71,40.71 0 0 0 6.16,1.32 l 2,0.33 a 17.77,17.77 0 0 1 6.68,2.26 c 3,2 3.63,5.77 3.63,8.56 0,7.82 -4.36,9.52 -10.9,9.68 h -13.69 v 4.5 h 13.8 c 3.78,-0.08 15.29,-0.35 15.3,-14.17 0,-5.46 -2,-9.84 -5.67,-12.26 z"
           class="cls-7"
           inkscape:connector-curvature="0"
           style="fill:#ffffff" />
        <path
           id="path4864"
           d="m 1019.15,229.39 -0.26,-0.73 -0.32,0.73 -13.16,30.72 -1.72,3.95 -8.62,20 -0.2,0.47 h 4.86 l 0.09,-0.2 8.48,-19.75 h 21.07 l 8.45,19.75 0.08,0.2 h 4.86 l -0.2,-0.47 z m 8.19,30.53 h -17.12 l 8.56,-19.91 z"
           class="cls-7"
           inkscape:connector-curvature="0"
           style="fill:#ffffff" />
        <path
           id="path4866"
           d="m 959.06,297.14 h 1.75 v 12.68 h 6.89 v 1.45 h -8.64 z"
           class="cls-7"
           inkscape:connector-curvature="0"
           style="fill:#ffffff" />
        <path
           id="path4868"
           d="m 979.8,311.42 c -0.47,0 -0.93,0 -1.4,0 a 1.62,1.62 0 0 1 -1.76,-1.46 1.4,1.4 0 0 1 0,-0.29 v -0.54 a 3.29,3.29 0 0 1 -3.57,2.35 3.14,3.14 0 0 1 -3.43,-2.81 3.38,3.38 0 0 1 0,-0.45 c 0,-2.54 1.73,-3.48 4.87,-3.48 h 2 v -0.89 a 2.09,2.09 0 0 0 -2.38,-2.35 c -1.32,0 -2.17,0.48 -2.4,1.81 l -1.64,-0.19 c 0.26,-1.6 1.32,-2.89 4.12,-2.89 2.53,0 4,1.31 4,3.68 v 5.48 c 0,0.55 0.18,0.74 0.65,0.74 h 1 z m -3.23,-4.74 v -0.78 h -2.07 c -1.88,0 -3.2,0.49 -3.2,2.23 a 2,2 0 0 0 1.85,2.12 h 0.33 c 2.45,0 3.09,-1.89 3.09,-3.57 z"
           class="cls-7"
           inkscape:connector-curvature="0"
           style="fill:#ffffff" />
        <path
           id="path4870"
           d="m 987,311.48 a 3.18,3.18 0 0 1 -3.21,-2 13.78,13.78 0 0 1 -0.08,1.81 h -1.6 v -16 h 1.66 v 6.88 a 3.49,3.49 0 0 1 3.35,-1.89 c 2.82,0 4.12,1.79 4.12,5.53 0,3.74 -1.33,5.67 -4.24,5.67 z m -0.18,-10 c -2,0 -3,1.17 -3,4.41 0,3.24 1,4.31 3,4.31 2,0 2.74,-1.14 2.74,-4.42 0,-3.28 -0.85,-4.25 -2.72,-4.25 z"
           class="cls-7"
           inkscape:connector-curvature="0"
           style="fill:#ffffff" />
        <path
           id="path4872"
           d="m 998.08,311.48 c -2.77,0 -4.71,-1.73 -4.71,-5.71 0,-3.74 1.79,-5.53 4.83,-5.53 3.04,0 4.78,1.83 4.78,5.58 0,3.75 -1.88,5.66 -4.9,5.66 z m 0,-10 c -1.88,0 -3.06,1 -3.06,4.25 0,3.25 1.39,4.52 3,4.52 1.87,0 3.07,-1.16 3.07,-4.52 0.09,-3.2 -1.02,-4.25 -3.01,-4.25 z"
           class="cls-7"
           inkscape:connector-curvature="0"
           style="fill:#ffffff" />
        <path
           id="path4874"
           d="m 1009.94,301.81 a 2.63,2.63 0 0 0 -2.67,2.6 3.37,3.37 0 0 0 0,0.44 v 6.42 h -1.58 v -10.83 h 1.58 v 2.09 a 2.63,2.63 0 0 1 2.78,-2.33 h 0.58 v 1.54 z"
           class="cls-7"
           inkscape:connector-curvature="0"
           style="fill:#ffffff" />
        <path
           id="path4876"
           d="m 1022.38,311.42 q -0.71,0 -1.41,0 a 1.62,1.62 0 0 1 -1.81,-1.41 2.62,2.62 0 0 1 0,-0.28 v -0.54 a 3.28,3.28 0 0 1 -3.54,2.29 3.12,3.12 0 0 1 -3.42,-2.81 3.39,3.39 0 0 1 0,-0.45 c 0,-2.54 1.73,-3.48 4.89,-3.48 h 2.09 v -0.89 a 2.09,2.09 0 0 0 -2.38,-2.35 c -1.38,0 -2.16,0.48 -2.38,1.81 l -1.65,-0.19 c 0.26,-1.6 1.32,-2.89 4.11,-2.89 2.54,0 3.95,1.31 3.95,3.68 v 5.48 c 0,0.55 0.18,0.74 0.63,0.74 h 1 z m -3.23,-4.74 v -0.78 h -2 c -1.9,0 -3.21,0.49 -3.21,2.23 a 2,2 0 0 0 1.84,2.12 h 0.34 c 2.39,0 3.03,-1.89 3.03,-3.57 z"
           class="cls-7"
           inkscape:connector-curvature="0"
           style="fill:#ffffff" />
        <path
           id="path4878"
           d="m 1023.81,300.44 h 1.32 v -3.18 h 1.67 v 3.15 h 2 v 1.32 h -2 V 309 c 0,0.68 0.23,1.06 1,1.06 h 1.2 v 1.39 h -2 a 1.89,1.89 0 0 1 -1.89,-1.89 1.48,1.48 0 0 1 0,-0.21 v -7.65 h -1.32 z"
           class="cls-7"
           inkscape:connector-curvature="0"
           style="fill:#ffffff" />
        <path
           id="path4880"
           d="m 1035.77,311.48 c -2.78,0 -4.72,-1.73 -4.72,-5.71 0,-3.74 1.8,-5.53 4.84,-5.53 3.04,0 4.78,1.83 4.78,5.58 0,3.75 -1.77,5.66 -4.9,5.66 z m 0.1,-10 c -1.88,0 -3.06,1 -3.06,4.25 0,3.25 1.39,4.52 3,4.52 1.87,0 3.07,-1.16 3.07,-4.52 0.02,-3.2 -1.07,-4.25 -3.01,-4.25 z m -0.79,-2.27 2.27,-3 h 2.3 l -3.12,3 z"
           class="cls-7"
           inkscape:connector-curvature="0"
           style="fill:#ffffff" />
        <path
           id="path4882"
           d="m 1047.7,301.81 a 2.63,2.63 0 0 0 -2.67,2.6 3.37,3.37 0 0 0 0,0.44 v 6.42 h -1.67 v -10.83 h 1.64 l 0.08,2.14 a 2.64,2.64 0 0 1 2.78,-2.33 h 0.58 v 1.54 z"
           class="cls-7"
           inkscape:connector-curvature="0"
           style="fill:#ffffff" />
        <path
           id="path4884"
           d="m 1050.84,296.34 h 1.82 v 1.86 h -1.82 z m 0.1,4.1 h 1.64 v 10.83 h -1.64 z"
           class="cls-7"
           inkscape:connector-curvature="0"
           style="fill:#ffffff" />
        <path
           id="path4886"
           d="m 1060.11,311.48 c -2.77,0 -4.71,-1.73 -4.71,-5.71 0,-3.74 1.79,-5.53 4.83,-5.53 3.04,0 4.78,1.83 4.78,5.58 0,3.75 -1.83,5.66 -4.9,5.66 z m 0.11,-10 c -1.88,0 -3.07,1 -3.07,4.25 0,3.25 1.4,4.52 3,4.52 1.87,0 3.07,-1.16 3.07,-4.52 0.04,-3.2 -1.07,-4.25 -3,-4.25 z"
           class="cls-7"
           inkscape:connector-curvature="0"
           style="fill:#ffffff" />
        <path
           id="path4888"
           d="m 1072.21,305.87 c 0,-3.8 1.32,-5.63 4.14,-5.63 a 3.35,3.35 0 0 1 3.37,2.05 v -7 h 1.67 v 13.86 a 22.31,22.31 0 0 0 0.08,2.23 h -1.75 c 0,-0.46 -0.07,-1.32 -0.07,-2.07 a 3.17,3.17 0 0 1 -3.47,2.28 c -2.69,-0.11 -3.97,-1.92 -3.97,-5.72 z m 7.43,-0.18 c 0,-3.08 -1.09,-4.21 -3,-4.21 -1.91,0 -2.71,1.42 -2.71,4.34 0,2.92 0.8,4.36 2.63,4.36 1.83,0 3.08,-1.18 3.08,-4.49 z"
           class="cls-7"
           inkscape:connector-curvature="0"
           style="fill:#ffffff" />
        <path
           id="path4890"
           d="m 1084.12,305.77 c 0,-3.95 2,-5.53 4.71,-5.53 3.61,0 4.52,2.34 4.52,5.19 v 0.76 h -7.42 c 0,2.33 0.81,4 3,4 a 2.45,2.45 0 0 0 2.74,-1.72 l 1.42,0.43 c -0.5,1.21 -1.38,2.55 -4.2,2.55 -3.21,0.03 -4.77,-1.95 -4.77,-5.68 z m 1.77,-0.86 h 5.68 v -0.14 c 0,-2.27 -0.91,-3.29 -2.77,-3.29 -1.4,0 -2.8,0.73 -2.91,3.43 z"
           class="cls-7"
           inkscape:connector-curvature="0"
           style="fill:#ffffff" />
        <path
           id="path4892"
           d="m 1106.05,311.48 c -3.26,0 -5,-1.31 -5.62,-3.6 l 1.74,-0.33 c 0.38,1.5 1.18,2.55 3.95,2.55 2.37,0 3.65,-0.83 3.65,-2.63 0,-1.8 -1.47,-2.2 -4.06,-2.79 -2.34,-0.54 -4.57,-1.24 -4.57,-3.95 0,-2.71 2.28,-3.78 4.91,-3.78 3.12,0 4.45,1.13 5.06,3.22 l -1.75,0.32 c -0.38,-1.42 -1,-2.19 -3.44,-2.19 -2.13,0 -3.07,1 -3.07,2.31 0,1.75 1.46,2.05 3.58,2.63 2.64,0.66 5,1.15 5,4.17 0.06,2.34 -1.62,4.07 -5.38,4.07 z"
           class="cls-7"
           inkscape:connector-curvature="0"
           style="fill:#ffffff" />
        <path
           id="path4894"
           d="m 1118.59,311.48 c -2.78,0 -4.72,-1.73 -4.72,-5.71 0,-3.74 1.79,-5.53 4.85,-5.53 3.06,0 4.77,1.83 4.77,5.58 0,3.75 -1.83,5.66 -4.9,5.66 z m 0.1,-10 c -1.87,0 -3.06,1 -3.06,4.25 0,3.25 1.4,4.52 3,4.52 1.87,0 3.07,-1.16 3.07,-4.52 0.05,-3.2 -1.07,-4.25 -3.01,-4.25 z"
           class="cls-7"
           inkscape:connector-curvature="0"
           style="fill:#ffffff" />
        <path
           id="path4896"
           d="m 1125.13,300.44 h 1.57 v -3.18 a 1.91,1.91 0 0 1 1.72,-2.1 2.16,2.16 0 0 1 0.36,0 h 1.67 v 1.39 h -1.51 c -0.49,0 -0.61,0.28 -0.61,0.75 v 3.16 h 2.13 v 1.32 h -2.13 v 9.57 h -1.67 v -9.65 h -1.53 z"
           class="cls-7"
           inkscape:connector-curvature="0"
           style="fill:#ffffff" />
        <path
           id="path4898"
           d="m 1132.11,300.44 h 1.32 v -3.18 h 1.57 v 3.15 h 2 v 1.32 h -2 V 309 c 0,0.68 0.22,1.06 1,1.06 h 1.2 v 1.39 h -2 a 1.89,1.89 0 0 1 -1.89,-1.89 1.48,1.48 0 0 1 0,-0.21 v -7.65 h -1.32 z"
           class="cls-7"
           inkscape:connector-curvature="0"
           style="fill:#ffffff" />
        <path
           id="path4900"
           d="m 1138.54,300.44 h 1.62 l 1.9,7.45 c 0.28,1 0.44,2 0.44,2 0,0 0.25,-0.95 0.5,-1.93 l 1.9,-7.51 h 2 l 1.9,7.51 c 0.22,0.87 0.44,1.94 0.44,1.94 0,0 0.25,-1.15 0.48,-2 l 2,-7.45 h 1.62 l -3.14,10.83 h -2 l -1.77,-7.08 c -0.22,-0.88 -0.51,-2.2 -0.55,-2.38 0,0.14 -0.32,1.46 -0.57,2.44 l -1.83,7 h -1.87 z"
           class="cls-7"
           inkscape:connector-curvature="0"
           style="fill:#ffffff" />
        <path
           id="path4902"
           d="m 1164.86,311.42 q -0.7,0 -1.41,0 a 1.63,1.63 0 0 1 -1.77,-1.46 1.4,1.4 0 0 1 0,-0.29 v -0.54 a 3.29,3.29 0 0 1 -3.54,2.29 3.13,3.13 0 0 1 -3.36,-2.89 c 0,-0.1 0,-0.21 0,-0.31 0,-2.54 1.73,-3.48 4.87,-3.48 h 2 v -0.89 a 2.09,2.09 0 0 0 -2.38,-2.35 c -1.32,0 -2.16,0.48 -2.38,1.81 l -1.66,-0.19 c 0.27,-1.6 1.31,-2.89 4.12,-2.89 2.53,0 3.95,1.31 3.95,3.68 v 5.48 c 0,0.55 0.18,0.74 0.63,0.74 h 1 z m -3.24,-4.74 v -0.78 h -2.06 c -1.89,0 -3.21,0.49 -3.21,2.23 a 2,2 0 0 0 1.84,2.12 h 0.35 c 2.46,0 3.08,-1.89 3.08,-3.57 z"
           class="cls-7"
           inkscape:connector-curvature="0"
           style="fill:#ffffff" />
        <path
           id="path4904"
           d="m 1171.48,301.81 a 2.7,2.7 0 0 0 -2.66,2.74 c 0,0.1 0,0.2 0,0.3 v 6.42 h -1.66 V 303 l -0.07,-2.51 h 1.58 l 0.09,2.14 a 2.64,2.64 0 0 1 2.78,-2.33 h 0.57 v 1.54 z"
           class="cls-7"
           inkscape:connector-curvature="0"
           style="fill:#ffffff" />
        <path
           id="path4906"
           d="m 1173.73,305.77 c 0,-3.95 2,-5.53 4.71,-5.53 3.61,0 4.52,2.34 4.52,5.19 v 0.76 h -7.41 c 0,2.33 0.8,4 3,4 a 2.45,2.45 0 0 0 2.73,-1.72 l 1.43,0.43 c -0.5,1.21 -1.39,2.55 -4.2,2.55 -3.21,0.03 -4.78,-1.95 -4.78,-5.68 z m 1.78,-0.86 h 5.7 v -0.14 c 0,-2.27 -0.91,-3.29 -2.77,-3.29 -1.44,0 -2.81,0.73 -2.93,3.43 z"
           class="cls-7"
           inkscape:connector-curvature="0"
           style="fill:#ffffff" />
        <circle
           id="circle4908"
           r="5.27"
           cy="256.5"
           cx="935.53998"
           class="cls-7"
           style="fill:#ffffff" />
        <circle
           id="circle4910"
           r="5.27"
           cy="307.53"
           cx="887.17999"
           class="cls-7"
           style="fill:#ffffff" />
        <circle
           id="circle4912"
           r="5.27"
           cy="267.67999"
           cx="902.91998"
           class="cls-7"
           style="fill:#ffffff" />
        <circle
           id="circle4914"
           r="5.27"
           cy="232.75"
           cx="930.34998"
           class="cls-7"
           style="fill:#ffffff" />
        <circle
           id="circle4916"
           r="5.27"
           cy="246.22"
           cx="878.27002"
           class="cls-7"
           style="fill:#ffffff" />
        <circle
           id="circle4918"
           r="5.27"
           cy="246.44"
           cx="901.03003"
           class="cls-7"
           style="fill:#ffffff" />
      </g>
    </g>
  </g>
</svg>
