<?xml version="1.0" encoding="UTF-8" standalone="no"?>
<!-- Created with Inkscape (http://www.inkscape.org/) -->

<svg
   xmlns:dc="http://purl.org/dc/elements/1.1/"
   xmlns:cc="http://creativecommons.org/ns#"
   xmlns:rdf="http://www.w3.org/1999/02/22-rdf-syntax-ns#"
   xmlns:svg="http://www.w3.org/2000/svg"
   xmlns="http://www.w3.org/2000/svg"
   xmlns:sodipodi="http://sodipodi.sourceforge.net/DTD/sodipodi-0.dtd"
   xmlns:inkscape="http://www.inkscape.org/namespaces/inkscape"
   width="210mm"
   height="297mm"
   viewBox="0 0 210 297"
   version="1.1"
   id="svg5899"
   inkscape:version="0.92.4 (ca053d0, 2019-01-16)"
   sodipodi:docname="logo2.svg">
  <defs
     id="defs5893" />
  <sodipodi:namedview
     id="base"
     pagecolor="#ffffff"
     bordercolor="#666666"
     borderopacity="1.0"
     inkscape:pageopacity="0.0"
     inkscape:pageshadow="2"
     inkscape:zoom="0.35"
     inkscape:cx="345.35543"
     inkscape:cy="560"
     inkscape:document-units="mm"
     inkscape:current-layer="layer1"
     showgrid="false"
     inkscape:window-width="927"
     inkscape:window-height="1025"
     inkscape:window-x="993"
     inkscape:window-y="27"
     inkscape:window-maximized="0" />
  <metadata
     id="metadata5896">
    <rdf:RDF>
      <cc:Work
         rdf:about="">
        <dc:format>image/svg+xml</dc:format>
        <dc:type
           rdf:resource="http://purl.org/dc/dcmitype/StillImage" />
        <dc:title></dc:title>
      </cc:Work>
    </rdf:RDF>
  </metadata>
  <g
     inkscape:label="Layer 1"
     inkscape:groupmode="layer"
     id="layer1">
    <g
       data-name="Layer 2"
       id="Layer_2-4"
       inkscape:export-xdpi="96"
       inkscape:export-ydpi="96"
       transform="matrix(0.26458333,0,0,0.26458333,-25.999912,127.5391)">
      <g
         data-name="Layer 1-2"
         id="Layer_1-2-4">
        <polygon
           id="polygon4586"
           points="427.12,89.59 427.27,89.59 441.14,89.61 441.29,89.61 441.29,89.46 441.29,87.73 441.29,87.58 441.15,87.58 429.14,87.57 429.17,65.85 429.17,65.71 429.02,65.71 427.29,65.71 427.15,65.71 427.15,65.85 427.12,89.44 "
           class="cls-7"
           style="fill:#ffffff" />
        <path
           id="path4588"
           d="m 473.67,65.76 h -8.18 v 23.88 h 2 V 78.55 h 6.22 c 1.7,0 6.89,-0.16 6.89,-6.38 -0.01,-6.4 -5.03,-6.41 -6.93,-6.41 z m 4.92,6.4 c 0,3.74 -2.37,4.31 -4.92,4.37 h -6.17 v -8.76 h 6.18 c 2.68,0.01 4.91,0.34 4.91,4.39 z"
           class="cls-7"
           inkscape:connector-curvature="0"
           style="fill:#ffffff" />
        <path
           id="path4590"
           d="m 492.09,65.78 h -8.2 v 0.14 23.59 0.15 h 2 V 78.57 h 6.25 c 1.7,0 6.88,-0.16 6.9,-6.38 -0.04,-6.4 -5.04,-6.41 -6.95,-6.41 z m 4.89,6.4 c 0,3.74 -2.38,4.31 -4.93,4.37 h -6.17 v -8.77 h 6.18 c 2.7,0.02 4.94,0.35 4.94,4.4 z"
           class="cls-7"
           inkscape:connector-curvature="0"
           style="fill:#ffffff" />
        <polygon
           id="polygon4592"
           points="503.81,89.67 503.95,89.67 505.68,89.67 505.83,89.67 505.83,89.53 505.85,65.94 505.85,65.8 505.71,65.8 502.26,65.79 502.12,65.79 502.12,65.94 502.12,67.66 502.12,67.81 502.26,67.81 503.84,67.81 503.81,89.53 "
           class="cls-7"
           style="fill:#ffffff" />
        <path
           id="path4594"
           d="M 521.26,78.25 A 9.3,9.3 0 0 0 517.65,77 l -0.89,-0.14 a 17.41,17.41 0 0 1 -2.39,-0.47 4.24,4.24 0 0 1 -3,-4.39 c 0,-3.38 1.89,-4.11 4.71,-4.17 h 4.77 v -0.17 -1.65 -0.14 h -0.14 c 0,0 -1.25,0 -2.59,0 H 516 c -1.63,0 -6.59,0.16 -6.59,6.11 a 6.06,6.06 0 0 0 4.33,6.25 17.26,17.26 0 0 0 2.66,0.57 l 0.86,0.14 a 7.58,7.58 0 0 1 2.88,1 4.27,4.27 0 0 1 1.57,3.69 c 0,3.37 -1.88,4.1 -4.71,4.17 h -5.87 v 1.94 h 5.95 c 1.63,0 6.59,-0.15 6.6,-6.11 a 6.1,6.1 0 0 0 -2.42,-5.38 z"
           class="cls-7"
           inkscape:connector-curvature="0"
           style="fill:#ffffff" />
        <path
           id="path4596"
           d="m 453,65.82 -0.12,-0.31 -0.13,0.31 -5.68,13.25 -0.74,1.71 -3.72,8.64 -0.09,0.2 h 2.1 V 89.54 L 448.36,81 h 9.08 l 3.65,8.52 v 0.08 h 2.1 L 463.1,89.4 Z M 456.57,79 h -7.38 l 3.69,-8.58 z"
           class="cls-7"
           inkscape:connector-curvature="0"
           style="fill:#ffffff" />
      </g>
    </g>
  </g>
</svg>
